<svg xmlns="http://www.w3.org/2000/svg" width="1495.551" height="323.145" viewBox="0 0 1495.551 323.145">
  <g id="logo-text-long" transform="translate(-805.965 -273.159)">
    <path id="Path_1880" data-name="Path 1880" d="M61.559,97.578H81.923l12.755-46.21,12.755,46.21H127.8l21.594-78.322h-18.8L117.056,74.082l-15.1-54.825H87.406L72.3,74.082,58.762,19.257h-18.8ZM164.944,76.32h39.72a32.524,32.524,0,0,0,.671-6.713c0-16.9-12.084-29.538-28.42-29.538-17.678,0-29.762,12.867-29.762,29.538s11.86,29.538,30.993,29.538c10.629,0,18.909-3.916,24.392-11.524L189.112,79.9a14.608,14.608,0,0,1-10.741,4.252C172.217,84.152,167.07,82.138,164.944,76.32Zm-.336-12.531c1.566-5.706,5.818-8.839,12.2-8.839,5.035,0,10.07,2.35,11.86,8.839ZM248.3,40.068c-7.5,0-12.979,2.573-16.671,6.825V19.257H214.846V97.578h16.783V92.32c3.692,4.252,9.175,6.825,16.671,6.825,14.657,0,26.741-12.867,26.741-29.538S262.958,40.068,248.3,40.068Zm-3.357,43.189c-7.72,0-13.315-5.259-13.315-13.65s5.594-13.65,13.315-13.65,13.315,5.259,13.315,13.65S252.664,83.257,244.944,83.257Zm67.133,15.552c15.552,0,25.734-8.5,25.734-21.482,0-13.538-12.084-17.9-25.958-22.489-11.189-3.692-19.133-6.6-19.133-16,0-8.727,6.825-15.1,17.678-15.1,11.189,0,17.231,6.49,20.14,13.538l5.035-2.8c-3.8-9.063-12.308-16.448-25.175-16.448-13.315,0-23.72,8.168-23.72,21.035,0,13.65,11.748,17.343,24.839,21.594,11.972,3.8,20.252,7.385,20.252,16.783,0,8.951-6.6,15.664-19.692,15.664-12.867,0-20.811-6.378-23.5-15.776l-5.147,3.021C287.014,91.424,297.419,98.809,312.077,98.809Zm66.35,0A29.2,29.2,0,1,0,349,69.606,28.966,28.966,0,0,0,378.426,98.809Zm0-5.371a23.833,23.833,0,1,1,23.608-23.832A23.545,23.545,0,0,1,378.426,93.438Zm42.741,4.14h5.594V15.9h-5.594Zm63.1-55.944V71.173c0,15.1-8.615,22.266-19.58,22.266-10.517,0-16.448-6.713-16.448-17.007v-34.8h-5.706v34.8c0,13.538,8.392,22.378,21.706,22.378,8.615,0,15.776-3.58,20.028-11.86V97.578h5.594V41.634Zm51.469,5.483V41.634H519.069V25.97l-5.706,1.678V41.634H501.055v5.483h12.308V83.48c0,12.755,7.72,16.336,22.378,14.1V92.543c-11.413,1.007-16.671.783-16.671-9.063V47.117ZM551.965,28.1a4.42,4.42,0,1,0-4.476-4.476A4.489,4.489,0,0,0,551.965,28.1Zm-2.8,69.482h5.594V41.634h-5.594Zm48.448,1.231a29.2,29.2,0,1,0-29.427-29.2A28.966,28.966,0,0,0,597.615,98.809Zm0-5.371a23.833,23.833,0,1,1,23.608-23.832A23.545,23.545,0,0,1,597.615,93.438ZM665.978,40.4c-8.615,0-15.776,3.58-20.028,11.86V41.634h-5.594V97.578h5.594V68.04c0-15.1,8.615-22.266,19.58-22.266,10.517,0,16.448,6.713,16.448,17.007v34.8h5.706v-34.8C687.685,49.243,679.293,40.4,665.978,40.4Zm41.287,15.888c0-6.713,6.154-10.517,13.427-10.517,6.154,0,11.972,2.685,14.322,8.5l4.7-2.685c-3.021-6.825-9.958-11.189-19.021-11.189-11.413,0-19.021,7.049-19.021,15.888,0,20.14,33.9,11.413,33.9,26.629,0,7.049-6.6,10.517-14.434,10.517-8.392,0-14.434-3.8-16.448-9.846l-4.811,2.8c2.685,7.161,10.07,12.42,21.259,12.42,11.972,0,20.028-6.713,20.028-15.888C741.167,62.445,707.265,71.285,707.265,56.292Z" transform="translate(766 497.159)" fill="#f5f5f5"/>
    <path id="Path_253" data-name="Path 253" d="M209.193,141.443c11.89-10.325,19.086-24.718,19.086-42.865C228.279,60.718,197.3,36,159.131,36H73.4V255.021h91.989c39.111,0,70.712-25.344,70.712-64.142C236.1,168.664,225.463,151.768,209.193,141.443Zm-50.062-58.51c11.577,0,19.086,8.135,19.086,19.4s-7.822,19.4-19.086,19.4H123.462v-38.8Zm6.258,125.155H123.462V166.161h41.927c12.516,0,20.651,8.761,20.651,20.963s-8.14,20.964-20.651,20.964Zm145.8-1.252v-38.8h78.222V120.479H311.194V84.185h86.044V36H261.132V255.021H398.8V206.836ZM574.019,36h-162.7V84.185h56.32V255.021H517.7V84.185h56.32ZM719.511,255.021h54.755L699.8,36H635.97L561.5,255.021h54.755L627.21,220.6h81.35ZM642.228,173.67l25.657-80.412,25.657,80.412Z" transform="translate(732.6 237.159)" fill="#f5f5f5"/>
    <path id="Path_254" data-name="Path 254" d="M277.4,247.11c39.672,0,74.2-20.593,91.457-51.785l-14.233-8.177C340.7,213.8,311.018,231.665,277.4,231.665c-55.722,0-94.183-41.792-94.183-93.88S221.681,43.9,277.4,43.9c33.312,0,62.688,17.565,76.618,43.609l14.233-8.177C350.69,48.447,316.47,28.46,277.4,28.46c-64.5,0-110.233,48.757-110.233,109.325S212.9,247.11,277.4,247.11Zm226.523,0a108.7,108.7,0,1,0-77.486-31.835,109.325,109.325,0,0,0,77.486,31.835Zm0-15.445c-52.391,0-93.274-41.792-93.274-93.88S451.536,43.9,503.927,43.9,597.2,85.7,597.2,137.785s-40.882,93.88-93.273,93.88Zm283.76,12.114H806.16l-52.694-89.035c26.953-7.268,46.637-31.5,46.637-60.265a62.813,62.813,0,0,0-62.688-62.688H653.832V243.778h16.05V156.864H736.81ZM669.882,46.933h67.533c25.741,0,46.637,21.2,46.637,47.546,0,26.044-20.9,47.243-46.637,47.243H669.882Zm185.64,181.7V144.447H952.43V129.3H855.523V46.933H960V31.791H839.472V243.778H961.516V228.636Z" transform="translate(1340 245.07)" fill="#f5f5f5"/>
  </g>
</svg>
