<svg xmlns="http://www.w3.org/2000/svg" width="1092.889" height="532.811" viewBox="0 0 1092.889 532.811">
  <g id="logo-white" transform="translate(-583.978 -1344.159)">
    <g id="Middel_2" data-name="Middel 2" transform="translate(582.978 1343.62)">
      <path id="Path_6" data-name="Path 6" d="M867.3,509.625,692.084,608.355,508,502.066V289.5L692.084,183.21,866.953,284.374l-78.256,45.1L691.766,273.3,585.61,334.6V457.183l106.156,61.283,96.918-54.214Z" transform="translate(-507 -75.005)" fill="#f5f5f5"/>
      <path id="Path_12" data-name="Path 12" d="M1.053,46.982,78.956.857,78.947,147.85l-77.9,44.924Z" transform="translate(0.001)" fill="#f5f5f5"/>
      <path id="Path_15" data-name="Path 15" d="M869.285,297.21l-78.532,45.414-.078,102.911,78.6,45.291Z" transform="translate(-499.943 -72.159)" fill="#f5f5f5"/>
    </g>
    <path id="Path_255" data-name="Path 255" d="M58.661,86.614h17.63L87.334,46.607,98.377,86.614h17.63l18.7-67.808H118.429L106.707,66.272,93.63,18.806H81.037L67.96,66.272,56.239,18.806H39.965Zm89.507-18.405h34.388a28.158,28.158,0,0,0,.581-5.812c0-14.627-10.462-25.573-24.6-25.573-15.305,0-25.767,11.14-25.767,25.573S143.033,87.97,159.6,87.97c9.2,0,16.371-3.39,21.117-9.977l-11.624-6.684a12.647,12.647,0,0,1-9.3,3.681C154.464,74.99,150.008,73.246,148.167,68.209Zm-.291-10.849c1.356-4.94,5.037-7.653,10.559-7.653,4.359,0,8.718,2.034,10.268,7.653Zm72.458-20.536c-6.49,0-11.237,2.228-14.433,5.909V18.806h-14.53V86.614H205.9V82.061c3.2,3.681,7.943,5.909,14.433,5.909,12.69,0,23.152-11.14,23.152-25.573S233.024,36.824,220.334,36.824Zm-2.906,37.391c-6.684,0-11.527-4.553-11.527-11.818s4.843-11.818,11.527-11.818,11.527,4.553,11.527,11.818S224.112,74.215,217.428,74.215ZM275.549,87.68c13.465,0,22.28-7.362,22.28-18.6,0-11.721-10.462-15.5-22.473-19.471-9.687-3.2-16.565-5.715-16.565-13.852,0-7.556,5.909-13.077,15.305-13.077,9.687,0,14.918,5.618,17.436,11.721l4.359-2.422c-3.294-7.846-10.656-14.24-21.8-14.24-11.527,0-20.536,7.071-20.536,18.211,0,11.818,10.171,15.015,21.5,18.7,10.365,3.294,17.533,6.393,17.533,14.53,0,7.749-5.715,13.562-17.049,13.562-11.14,0-18.018-5.521-20.342-13.658L250.751,71.7C253.851,81.286,262.86,87.68,275.549,87.68Zm57.443,0A25.283,25.283,0,1,0,307.516,62.4,25.077,25.077,0,0,0,332.992,87.68Zm0-4.65A20.634,20.634,0,1,1,353.432,62.4,20.385,20.385,0,0,1,332.992,83.03Zm37,3.584h4.843V15.9H370ZM424.63,38.18V63.753c0,13.077-7.459,19.277-16.952,19.277-9.106,0-14.24-5.812-14.24-14.724V38.18H388.5V68.306c0,11.721,7.265,19.374,18.792,19.374,7.459,0,13.658-3.1,17.339-10.268v9.2h4.843V38.18Zm44.56,4.747V38.18H454.756V24.618l-4.94,1.453V38.18H439.16v4.747h10.656V74.409c0,11.043,6.684,14.143,19.374,12.205V82.255c-9.881.872-14.433.678-14.433-7.846V42.926Zm14.046-16.468a3.827,3.827,0,1,0-3.875-3.875A3.886,3.886,0,0,0,483.236,26.459Zm-2.422,60.155h4.843V38.18h-4.843Zm41.944,1.066A25.283,25.283,0,1,0,497.281,62.4,25.077,25.077,0,0,0,522.758,87.68Zm0-4.65A20.634,20.634,0,1,1,543.2,62.4,20.385,20.385,0,0,1,522.758,83.03Zm59.187-45.916c-7.459,0-13.659,3.1-17.339,10.268v-9.2h-4.843V86.614h4.843V61.041c0-13.077,7.459-19.277,16.952-19.277,9.106,0,14.24,5.812,14.24,14.724V86.614h4.94V56.488C600.737,44.767,593.472,37.114,581.945,37.114ZM617.689,50.87c0-5.812,5.328-9.106,11.624-9.106,5.328,0,10.365,2.325,12.4,7.362l4.068-2.325c-2.615-5.909-8.621-9.687-16.468-9.687-9.881,0-16.468,6.1-16.468,13.755,0,17.436,29.351,9.881,29.351,23.055,0,6.1-5.715,9.106-12.5,9.106-7.265,0-12.5-3.294-14.24-8.524L611.3,76.927c2.325,6.2,8.718,10.752,18.405,10.752,10.365,0,17.339-5.812,17.339-13.755C647.04,56.2,617.689,63.85,617.689,50.87Z" transform="translate(936 1789)" fill="#f5f5f5"/>
    <g id="logo-text" transform="translate(170 1071)">
      <path id="Path_253" data-name="Path 253" d="M209.193,141.443c11.89-10.325,19.086-24.718,19.086-42.865C228.279,60.718,197.3,36,159.131,36H73.4V255.021h91.989c39.111,0,70.712-25.344,70.712-64.142C236.1,168.664,225.463,151.768,209.193,141.443Zm-50.062-58.51c11.577,0,19.086,8.135,19.086,19.4s-7.822,19.4-19.086,19.4H123.462v-38.8Zm6.258,125.155H123.462V166.161h41.927c12.516,0,20.651,8.761,20.651,20.963S177.9,208.088,165.389,208.088Zm145.805-1.252v-38.8h78.222V120.479H311.194V84.185h86.044V36H261.132V255.021H398.8V206.836ZM574.019,36h-162.7V84.185h56.32V255.021H517.7V84.185h56.32ZM719.511,255.021h54.755L699.8,36H635.97L561.5,255.021h54.755L627.21,220.6H708.56ZM642.228,173.67l25.657-80.412,25.657,80.412Z" transform="translate(732.6 237.159)" fill="#f5f5f5"/>
      <path id="Path_254" data-name="Path 254" d="M264.407,221.332c34.995,0,65.448-18.165,80.675-45.68l-12.555-7.213c-12.288,23.508-38.467,39.269-68.12,39.269-49.153,0-83.079-36.865-83.079-82.812s33.926-82.812,83.079-82.812c29.385,0,55.3,15.494,67.585,38.468l12.555-7.213c-15.494-27.248-45.68-44.879-80.141-44.879-56.9,0-97.237,43.009-97.237,96.436S207.507,221.332,264.407,221.332Zm199.817,0A96.436,96.436,0,1,0,367.789,124.9,95.885,95.885,0,0,0,464.225,221.332Zm0-13.624c-46.214,0-82.278-36.865-82.278-82.812s36.063-82.812,82.278-82.812S546.5,78.949,546.5,124.9,510.439,207.708,464.225,207.708Zm250.306,10.685h16.3l-46.482-78.538A55.131,55.131,0,0,0,670.186,31.4H596.457V218.393h14.158V141.725h59.037ZM610.615,44.755h59.571c22.707,0,41.139,18.7,41.139,41.94,0,22.974-18.432,41.673-41.139,41.673H610.615ZM774.369,205.037V130.773h85.483V117.416H774.369V44.755h92.162V31.4H760.211V218.393H867.867V205.037Z" transform="translate(639 488.07)" fill="#f5f5f5"/>
    </g>
  </g>
</svg>
