<svg xmlns="http://www.w3.org/2000/svg" xmlns:xlink="http://www.w3.org/1999/xlink" viewBox="0 0 421.45 569.91"><defs><style>.cls-1,.cls-3{fill:none;stroke:#39eafd;stroke-miterlimit:10;}.cls-2{clip-path:url(#clip-path);}.cls-3{stroke-width:0.25px;}.cls-4{clip-path:url(#clip-path-2);}.cls-5{clip-path:url(#clip-path-3);}.cls-6{clip-path:url(#clip-path-4);}.cls-7{clip-path:url(#clip-path-5);}.cls-8{clip-path:url(#clip-path-6);}.cls-9{clip-path:url(#clip-path-7);}.cls-10{clip-path:url(#clip-path-8);}.cls-11{clip-path:url(#clip-path-9);}.cls-12{clip-path:url(#clip-path-10);}.cls-13{clip-path:url(#clip-path-11);}.cls-14{clip-path:url(#clip-path-12);}.cls-15{clip-path:url(#clip-path-13);}.cls-16{clip-path:url(#clip-path-14);}.cls-17{clip-path:url(#clip-path-15);}.cls-18{clip-path:url(#clip-path-16);}.cls-19{clip-path:url(#clip-path-17);}.cls-20{clip-path:url(#clip-path-18);}.cls-21{clip-path:url(#clip-path-19);}.cls-22{clip-path:url(#clip-path-20);}.cls-23{clip-path:url(#clip-path-21);}.cls-24{clip-path:url(#clip-path-22);}.cls-25{clip-path:url(#clip-path-23);}.cls-26{clip-path:url(#clip-path-24);}.cls-27{clip-path:url(#clip-path-25);}.cls-28{clip-path:url(#clip-path-26);}.cls-29{clip-path:url(#clip-path-27);}.cls-30{clip-path:url(#clip-path-28);}.cls-31{clip-path:url(#clip-path-29);}.cls-32{clip-path:url(#clip-path-30);}.cls-33{clip-path:url(#clip-path-31);}.cls-34{clip-path:url(#clip-path-32);}.cls-35{clip-path:url(#clip-path-33);}.cls-36{clip-path:url(#clip-path-34);}.cls-37{clip-path:url(#clip-path-35);}.cls-38{clip-path:url(#clip-path-36);}.cls-39{clip-path:url(#clip-path-37);}.cls-40{clip-path:url(#clip-path-38);}.cls-41{clip-path:url(#clip-path-39);}.cls-42{clip-path:url(#clip-path-40);}.cls-43{clip-path:url(#clip-path-41);}.cls-44{clip-path:url(#clip-path-42);}.cls-45{clip-path:url(#clip-path-43);}.cls-46{clip-path:url(#clip-path-44);}.cls-47{clip-path:url(#clip-path-45);}.cls-48{clip-path:url(#clip-path-46);}.cls-49{clip-path:url(#clip-path-47);}.cls-50{clip-path:url(#clip-path-48);}.cls-51{clip-path:url(#clip-path-49);}.cls-52{clip-path:url(#clip-path-50);}.cls-53{clip-path:url(#clip-path-51);}.cls-54{clip-path:url(#clip-path-52);}.cls-55{clip-path:url(#clip-path-53);}.cls-56{clip-path:url(#clip-path-54);}.cls-57{clip-path:url(#clip-path-55);}.cls-58{clip-path:url(#clip-path-56);}.cls-59{clip-path:url(#clip-path-57);}.cls-60{clip-path:url(#clip-path-58);}.cls-61{clip-path:url(#clip-path-59);}.cls-62{clip-path:url(#clip-path-60);}.cls-63{clip-path:url(#clip-path-61);}.cls-64{clip-path:url(#clip-path-62);}.cls-65{clip-path:url(#clip-path-63);}.cls-66{clip-path:url(#clip-path-64);}.cls-67{clip-path:url(#clip-path-65);}.cls-68{clip-path:url(#clip-path-66);}.cls-69{clip-path:url(#clip-path-67);}.cls-70{clip-path:url(#clip-path-68);}.cls-71{clip-path:url(#clip-path-69);}.cls-72{clip-path:url(#clip-path-70);}.cls-73{clip-path:url(#clip-path-71);}.cls-74{clip-path:url(#clip-path-72);}</style><clipPath id="clip-path"><polygon class="cls-1" points="271.87 382.44 397.97 567.51 319.94 568.28 193.19 382.25 271.87 382.44"/></clipPath><clipPath id="clip-path-2"><polygon class="cls-1" points="292.06 368.61 418.17 553.68 340.15 554.45 213.39 368.42 292.06 368.61"/></clipPath><clipPath id="clip-path-3"><polygon class="cls-1" points="292.06 368.61 418.17 553.68 397.97 567.51 271.87 382.44 292.06 368.61"/></clipPath><clipPath id="clip-path-4"><polygon class="cls-1" points="418.17 553.68 397.97 567.51 319.94 568.28 340.15 554.45 418.17 553.68"/></clipPath><clipPath id="clip-path-5"><polygon class="cls-1" points="340.15 554.45 319.94 568.28 193.19 382.25 213.39 368.42 340.15 554.45"/></clipPath><clipPath id="clip-path-6"><polygon class="cls-1" points="213.39 368.42 292.06 368.61 271.87 382.44 193.19 382.25 213.39 368.42"/></clipPath><clipPath id="clip-path-7"><path class="cls-1" d="M272.25,381.5,399.62,568.44l-80.06.78-128-187.91Zm-79,.75L320,568.28l78.06-.77L271.87,382.44l-78.68-.19"/></clipPath><clipPath id="clip-path-8"><path class="cls-1" d="M292.44,367.67,419.81,554.6l-80,.78L211.72,367.48Zm-79,.75,126.74,186,78.05-.77L292.06,368.61l-78.67-.19"/></clipPath><clipPath id="clip-path-9"><polygon class="cls-1" points="292.44 367.67 419.81 554.6 399.62 568.44 272.25 381.5 292.44 367.67"/></clipPath><clipPath id="clip-path-10"><polygon class="cls-1" points="419.81 554.6 399.62 568.44 319.56 569.22 339.77 555.38 419.81 554.6"/></clipPath><clipPath id="clip-path-11"><polygon class="cls-1" points="339.77 555.38 319.56 569.22 191.53 381.31 211.72 367.48 339.77 555.38"/></clipPath><clipPath id="clip-path-12"><polygon class="cls-1" points="211.72 367.48 292.44 367.67 272.25 381.5 191.53 381.31 211.72 367.48"/></clipPath><clipPath id="clip-path-13"><polygon class="cls-1" points="213.39 368.42 340.15 554.45 319.94 568.28 193.19 382.25 213.39 368.42"/></clipPath><clipPath id="clip-path-14"><polygon class="cls-1" points="340.15 554.45 418.17 553.68 397.97 567.51 319.94 568.28 340.15 554.45"/></clipPath><clipPath id="clip-path-15"><polygon class="cls-1" points="418.17 553.68 397.97 567.51 271.87 382.44 292.06 368.61 418.17 553.68"/></clipPath><clipPath id="clip-path-16"><polygon class="cls-1" points="292.06 368.61 271.87 382.44 193.19 382.25 213.39 368.42 292.06 368.61"/></clipPath><clipPath id="clip-path-17"><polygon class="cls-1" points="258.25 15.47 368.54 177.49 290.15 178.16 228.7 87.75 120.71 88.76 79.88 189.07 147.42 288.11 245.37 288.85 294.63 361.09 118.61 360.77 2.11 189.86 71.93 17.21 258.25 15.47"/></clipPath><clipPath id="clip-path-18"><polygon class="cls-1" points="278.46 1.63 388.75 163.65 310.36 164.32 248.91 73.91 140.91 74.93 100.09 175.23 167.62 274.29 265.57 275.02 314.83 347.25 138.82 346.93 22.31 176.02 92.13 3.38 278.46 1.63"/></clipPath><clipPath id="clip-path-19"><polygon class="cls-1" points="278.46 1.63 388.75 163.65 368.54 177.49 258.25 15.47 278.46 1.63"/></clipPath><clipPath id="clip-path-20"><polygon class="cls-1" points="388.75 163.65 368.54 177.49 290.15 178.16 310.36 164.32 388.75 163.65"/></clipPath><clipPath id="clip-path-21"><polygon class="cls-1" points="310.36 164.32 290.15 178.16 228.7 87.75 248.91 73.91 310.36 164.32"/></clipPath><clipPath id="clip-path-22"><polygon class="cls-1" points="248.91 73.91 228.7 87.75 120.71 88.76 140.91 74.93 248.91 73.91"/></clipPath><clipPath id="clip-path-23"><polygon class="cls-1" points="140.91 74.93 100.09 175.23 79.88 189.07 120.71 88.76 140.91 74.93"/></clipPath><clipPath id="clip-path-24"><polygon class="cls-1" points="100.09 175.23 167.62 274.29 147.42 288.11 79.88 189.07 100.09 175.23"/></clipPath><clipPath id="clip-path-25"><polygon class="cls-1" points="167.62 274.29 265.57 275.02 245.37 288.85 147.42 288.11 167.62 274.29"/></clipPath><clipPath id="clip-path-26"><polygon class="cls-1" points="265.57 275.02 314.83 347.25 294.63 361.09 245.37 288.85 265.57 275.02"/></clipPath><clipPath id="clip-path-27"><polygon class="cls-1" points="314.83 347.25 294.63 361.09 118.61 360.77 138.82 346.93 314.83 347.25"/></clipPath><clipPath id="clip-path-28"><polygon class="cls-1" points="138.82 346.93 118.61 360.77 2.11 189.86 22.31 176.02 138.82 346.93"/></clipPath><clipPath id="clip-path-29"><polygon class="cls-1" points="22.31 176.02 2.11 189.86 71.93 17.21 92.13 3.38 22.31 176.02"/></clipPath><clipPath id="clip-path-30"><polygon class="cls-1" points="92.13 3.38 278.46 1.63 258.25 15.47 71.93 17.21 92.13 3.38"/></clipPath><clipPath id="clip-path-31"><path class="cls-1" d="M245.75,287.91,296.29,362l-178-.3L1.08,189.86,71.29,16.31l187.34-1.75L370.18,178.48l-80.43.68L228.28,88.75l-107.23,1L80.9,189.06,148,287.41ZM2.13,189.86,118.61,360.74l176,.31-49.26-72.2-97.8-.5L79.88,189.07,120.45,88.76l108.25-1,61.47,90.41,78.39-.67L258.3,15.56,71.94,17.3,2.13,189.86"/></clipPath><clipPath id="clip-path-32"><path class="cls-1" d="M266,274.07l50.54,74.16-178.06-.33L21.34,176.06,91.59,2.48,278.84.7,390.39,164.62l-80.42.67L248.53,74.85l-107.24,1-40.18,99.39,67.06,98.36ZM22.31,176,138.82,346.93l176,.32-49.26-72.2-97.79-.51-67.69-99.31,40.59-100.3L249,74l61.47,90.41,78.39-.67L278.46,1.67,92.1,3.42,22.31,176"/></clipPath><clipPath id="clip-path-33"><polygon class="cls-1" points="265.95 274.07 316.49 348.19 296.29 362.01 245.75 287.91 265.95 274.07"/></clipPath><clipPath id="clip-path-34"><polygon class="cls-1" points="316.49 348.19 296.29 362.01 118.23 361.69 138.43 347.86 316.49 348.19"/></clipPath><clipPath id="clip-path-35"><polygon class="cls-1" points="138.43 347.86 118.23 361.69 1.08 189.86 21.29 176.02 138.43 347.86"/></clipPath><clipPath id="clip-path-36"><polygon class="cls-1" points="21.29 176.02 1.08 189.86 71.29 16.28 91.48 2.44 21.29 176.02"/></clipPath><clipPath id="clip-path-37"><polygon class="cls-1" points="91.48 2.44 278.84 0.7 258.64 14.53 71.29 16.28 91.48 2.44"/></clipPath><clipPath id="clip-path-38"><polygon class="cls-1" points="278.84 0.7 390.39 164.59 370.19 178.41 258.64 14.53 278.84 0.7"/></clipPath><clipPath id="clip-path-39"><polygon class="cls-1" points="390.39 164.59 370.19 178.41 289.77 179.1 309.97 165.26 390.39 164.59"/></clipPath><clipPath id="clip-path-40"><polygon class="cls-1" points="309.97 165.26 289.77 179.1 228.32 88.69 248.53 74.85 309.97 165.26"/></clipPath><clipPath id="clip-path-41"><polygon class="cls-1" points="248.53 74.85 228.32 88.69 121.09 89.69 141.29 75.86 248.53 74.85"/></clipPath><clipPath id="clip-path-42"><polygon class="cls-1" points="141.29 75.86 101.11 175.22 80.9 189.06 121.09 89.69 141.29 75.86"/></clipPath><clipPath id="clip-path-43"><polygon class="cls-1" points="101.11 175.22 168.16 273.57 147.96 287.41 80.9 189.06 101.11 175.22"/></clipPath><clipPath id="clip-path-44"><polygon class="cls-1" points="168.16 273.57 265.95 274.07 245.75 287.91 147.96 287.41 168.16 273.57"/></clipPath><clipPath id="clip-path-45"><polygon class="cls-1" points="22.31 176.02 138.82 346.93 118.61 360.77 2.11 189.86 22.31 176.02"/></clipPath><clipPath id="clip-path-46"><polygon class="cls-1" points="138.82 346.93 314.83 347.25 294.63 361.09 118.61 360.77 138.82 346.93"/></clipPath><clipPath id="clip-path-47"><polygon class="cls-1" points="314.83 347.25 294.63 361.09 245.37 288.85 265.57 275.01 314.83 347.25"/></clipPath><clipPath id="clip-path-48"><polygon class="cls-1" points="265.57 275.01 245.37 288.85 147.57 288.35 167.78 274.51 265.57 275.01"/></clipPath><clipPath id="clip-path-49"><polygon class="cls-1" points="167.78 274.51 147.57 288.35 79.88 189.07 100.09 175.23 167.78 274.51"/></clipPath><clipPath id="clip-path-50"><polygon class="cls-1" points="100.09 175.23 79.88 189.07 120.45 88.76 140.65 74.93 100.09 175.23"/></clipPath><clipPath id="clip-path-51"><polygon class="cls-1" points="140.65 74.93 248.91 73.91 228.7 87.75 120.45 88.76 140.65 74.93"/></clipPath><clipPath id="clip-path-52"><polygon class="cls-1" points="248.91 73.91 310.36 164.32 290.15 178.16 228.7 87.75 248.91 73.91"/></clipPath><clipPath id="clip-path-53"><polygon class="cls-1" points="310.36 164.32 388.75 163.65 368.54 177.49 290.15 178.16 310.36 164.32"/></clipPath><clipPath id="clip-path-54"><polygon class="cls-1" points="388.75 163.65 368.54 177.49 258.25 15.47 278.46 1.63 388.75 163.65"/></clipPath><clipPath id="clip-path-55"><polygon class="cls-1" points="278.46 1.63 258.25 15.47 71.93 17.21 92.13 3.38 278.46 1.63"/></clipPath><clipPath id="clip-path-56"><polygon class="cls-1" points="92.13 3.38 22.31 176.02 2.11 189.86 71.93 17.21 92.13 3.38"/></clipPath><clipPath id="clip-path-57"><polygon class="cls-1" points="371.24 195.52 308.04 351.79 258.76 279.62 292.53 196.32 371.24 195.52"/></clipPath><clipPath id="clip-path-58"><polygon class="cls-1" points="391.44 181.69 328.23 337.95 278.96 265.78 312.73 182.48 391.44 181.69"/></clipPath><clipPath id="clip-path-59"><polygon class="cls-1" points="391.44 181.69 328.23 337.95 308.04 351.79 371.24 195.52 391.44 181.69"/></clipPath><clipPath id="clip-path-60"><polygon class="cls-1" points="328.23 337.95 308.04 351.79 258.76 279.62 278.96 265.78 328.23 337.95"/></clipPath><clipPath id="clip-path-61"><polygon class="cls-1" points="278.96 265.78 258.76 279.62 292.53 196.32 312.73 182.48 278.96 265.78"/></clipPath><clipPath id="clip-path-62"><polygon class="cls-1" points="312.73 182.48 391.44 181.69 371.24 195.52 292.53 196.32 312.73 182.48"/></clipPath><clipPath id="clip-path-63"><path class="cls-1" d="M291.92,195.38l80.74-.81-64.34,159-50.55-74Zm16.15,156.41,63.17-156.27-78.71.8-33.79,83.29L308,351.82"/></clipPath><clipPath id="clip-path-64"><path class="cls-1" d="M312.09,181.56l80.75-.82-64.35,159-50.54-74ZM328.23,338l63.21-156.26-78.71.79L279,265.78,328.23,338"/></clipPath><clipPath id="clip-path-65"><polygon class="cls-1" points="312.09 181.54 392.84 180.75 372.63 194.57 291.89 195.38 312.09 181.54"/></clipPath><clipPath id="clip-path-66"><polygon class="cls-1" points="392.84 180.75 328.49 339.82 308.29 353.65 372.63 194.57 392.84 180.75"/></clipPath><clipPath id="clip-path-67"><polygon class="cls-1" points="328.49 339.82 308.29 353.65 257.74 279.63 277.94 265.8 328.49 339.82"/></clipPath><clipPath id="clip-path-68"><polygon class="cls-1" points="277.94 265.8 257.74 279.63 291.89 195.38 312.09 181.54 277.94 265.8"/></clipPath><clipPath id="clip-path-69"><polygon class="cls-1" points="328.23 337.95 308.04 351.79 371.24 195.52 391.44 181.69 328.23 337.95"/></clipPath><clipPath id="clip-path-70"><polygon class="cls-1" points="391.44 181.69 371.24 195.52 292.53 196.32 312.73 182.48 391.44 181.69"/></clipPath><clipPath id="clip-path-71"><polygon class="cls-1" points="312.73 182.48 278.96 265.78 258.76 279.62 292.53 196.32 312.73 182.48"/></clipPath><clipPath id="clip-path-72"><polygon class="cls-1" points="278.96 265.78 328.23 337.95 308.04 351.79 258.76 279.62 278.96 265.78"/></clipPath></defs><g id="Laag_2" data-name="Laag 2"><g id="Laag_1-2" data-name="Laag 1"><g id="Laag_2-2" data-name="Laag 2"><g id="Laag_1-2-2" data-name="Laag 1-2"><g id="magnify"><g class="cls-2"><polygon class="cls-3" points="271.87 382.45 397.97 567.52 319.94 568.28 193.19 382.25 271.87 382.45"/></g><polygon class="cls-1" points="271.87 382.44 397.97 567.51 319.94 568.28 193.19 382.25 271.87 382.44"/><g class="cls-4"><polygon class="cls-3" points="292.07 368.61 418.17 553.68 340.15 554.46 213.39 368.43 292.07 368.61"/></g><polygon class="cls-1" points="292.06 368.61 418.17 553.68 340.15 554.45 213.39 368.42 292.06 368.61"/><g class="cls-5"><polygon class="cls-3" points="292.07 368.61 418.17 553.68 397.97 567.52 271.87 382.45 292.07 368.61"/></g><polygon class="cls-1" points="292.06 368.61 418.17 553.68 397.97 567.51 271.87 382.44 292.06 368.61"/><g class="cls-6"><polygon class="cls-3" points="418.17 553.68 397.97 567.52 319.94 568.28 340.15 554.46 418.17 553.68"/></g><polygon class="cls-1" points="418.17 553.68 397.97 567.51 319.94 568.28 340.15 554.45 418.17 553.68"/><g class="cls-7"><polygon class="cls-3" points="340.15 554.46 319.94 568.28 193.19 382.25 213.39 368.43 340.15 554.46"/></g><polygon class="cls-1" points="340.15 554.45 319.94 568.28 193.19 382.25 213.39 368.42 340.15 554.45"/><g class="cls-8"><polygon class="cls-3" points="213.39 368.43 292.07 368.61 271.87 382.45 193.19 382.25 213.39 368.43"/></g><polygon class="cls-1" points="213.39 368.42 292.06 368.61 271.87 382.44 193.19 382.25 213.39 368.42"/><g class="cls-9"><path class="cls-3" d="M272.25,381.5,399.62,568.44l-80.06.78-128-187.91Zm-79,.75L320,568.28l78.06-.77L271.87,382.44l-78.68-.19"/></g><path class="cls-1" d="M272.25,381.5,399.62,568.44l-80.06.78-128-187.91Zm-79,.75L320,568.28l78.06-.77L271.87,382.44l-78.68-.19"/><g class="cls-10"><path class="cls-3" d="M292.44,367.67,419.81,554.6l-80,.78L211.72,367.48Zm-79,.75,126.74,186,78.05-.77L292.06,368.61l-78.67-.19"/></g><path class="cls-1" d="M292.44,367.67,419.81,554.6l-80,.78L211.72,367.48Zm-79,.75,126.74,186,78.05-.77L292.06,368.61l-78.67-.19"/><g class="cls-11"><polygon class="cls-3" points="292.44 367.67 419.81 554.6 399.62 568.44 272.25 381.51 292.44 367.67"/></g><polygon class="cls-1" points="292.44 367.67 419.81 554.6 399.62 568.44 272.25 381.5 292.44 367.67"/><g class="cls-12"><polygon class="cls-3" points="419.81 554.6 399.62 568.44 319.56 569.22 339.77 555.39 419.81 554.6"/></g><polygon class="cls-1" points="419.81 554.6 399.62 568.44 319.56 569.22 339.77 555.38 419.81 554.6"/><g class="cls-13"><polygon class="cls-3" points="339.77 555.39 319.56 569.22 191.53 381.31 211.72 367.48 339.77 555.39"/></g><polygon class="cls-1" points="339.77 555.38 319.56 569.22 191.53 381.31 211.72 367.48 339.77 555.38"/><g class="cls-14"><polygon class="cls-3" points="211.72 367.48 292.44 367.67 272.25 381.51 191.53 381.31 211.72 367.48"/></g><polygon class="cls-1" points="211.72 367.48 292.44 367.67 272.25 381.5 191.53 381.31 211.72 367.48"/><g class="cls-15"><polygon class="cls-3" points="213.39 368.43 340.15 554.45 319.94 568.28 193.19 382.25 213.39 368.43"/></g><polygon class="cls-1" points="213.39 368.42 340.15 554.45 319.94 568.28 193.19 382.25 213.39 368.42"/><g class="cls-16"><polygon class="cls-3" points="340.15 554.45 418.17 553.68 397.97 567.52 319.94 568.28 340.15 554.45"/></g><polygon class="cls-1" points="340.15 554.45 418.17 553.68 397.97 567.51 319.94 568.28 340.15 554.45"/><g class="cls-17"><polygon class="cls-3" points="418.17 553.68 397.97 567.52 271.87 382.45 292.06 368.61 418.17 553.68"/></g><polygon class="cls-1" points="418.17 553.68 397.97 567.51 271.87 382.44 292.06 368.61 418.17 553.68"/><g class="cls-18"><polygon class="cls-3" points="292.06 368.61 271.87 382.45 193.19 382.25 213.39 368.43 292.06 368.61"/></g><polygon class="cls-1" points="292.06 368.61 271.87 382.44 193.19 382.25 213.39 368.42 292.06 368.61"/><g class="cls-19"><polygon class="cls-3" points="258.26 15.47 368.54 177.5 290.15 178.17 228.7 87.75 120.71 88.77 79.88 189.08 147.42 288.12 245.37 288.86 294.63 361.09 118.61 360.77 2.11 189.86 71.93 17.21 258.26 15.47"/></g><polygon class="cls-1" points="258.25 15.47 368.54 177.49 290.15 178.16 228.7 87.75 120.71 88.76 79.88 189.07 147.42 288.11 245.37 288.85 294.63 361.09 118.61 360.77 2.11 189.86 71.93 17.21 258.25 15.47"/><g class="cls-20"><polygon class="cls-3" points="278.46 1.64 388.74 163.66 310.36 164.33 248.9 73.92 140.91 74.94 100.09 175.24 167.62 274.29 265.57 275.02 314.83 347.25 138.82 346.93 22.31 176.02 92.13 3.38 278.46 1.64"/></g><polygon class="cls-1" points="278.46 1.63 388.75 163.65 310.36 164.32 248.91 73.91 140.91 74.93 100.09 175.23 167.62 274.29 265.57 275.02 314.83 347.25 138.82 346.93 22.31 176.02 92.13 3.38 278.46 1.63"/><g class="cls-21"><polygon class="cls-3" points="278.46 1.64 388.74 163.66 368.54 177.5 258.26 15.47 278.46 1.64"/></g><polygon class="cls-1" points="278.46 1.63 388.75 163.65 368.54 177.49 258.25 15.47 278.46 1.63"/><g class="cls-22"><polygon class="cls-3" points="388.74 163.66 368.54 177.5 290.15 178.17 310.36 164.33 388.74 163.66"/></g><polygon class="cls-1" points="388.75 163.65 368.54 177.49 290.15 178.16 310.36 164.32 388.75 163.65"/><g class="cls-23"><polygon class="cls-3" points="310.36 164.33 290.15 178.17 228.7 87.75 248.9 73.92 310.36 164.33"/></g><polygon class="cls-1" points="310.36 164.32 290.15 178.16 228.7 87.75 248.91 73.91 310.36 164.32"/><g class="cls-24"><polygon class="cls-3" points="248.9 73.92 228.7 87.75 120.71 88.77 140.91 74.94 248.9 73.92"/></g><polygon class="cls-1" points="248.91 73.91 228.7 87.75 120.71 88.76 140.91 74.93 248.91 73.91"/><g class="cls-25"><polygon class="cls-3" points="140.91 74.94 100.09 175.24 79.88 189.08 120.71 88.77 140.91 74.94"/></g><polygon class="cls-1" points="140.91 74.93 100.09 175.23 79.88 189.07 120.71 88.76 140.91 74.93"/><g class="cls-26"><polygon class="cls-3" points="100.09 175.24 167.62 274.29 147.42 288.12 79.88 189.08 100.09 175.24"/></g><polygon class="cls-1" points="100.09 175.23 167.62 274.29 147.42 288.11 79.88 189.07 100.09 175.23"/><g class="cls-27"><polygon class="cls-3" points="167.62 274.29 265.57 275.02 245.37 288.86 147.42 288.12 167.62 274.29"/></g><polygon class="cls-1" points="167.62 274.29 265.57 275.02 245.37 288.85 147.42 288.11 167.62 274.29"/><g class="cls-28"><polygon class="cls-3" points="265.57 275.02 314.83 347.25 294.63 361.09 245.37 288.86 265.57 275.02"/></g><polygon class="cls-1" points="265.57 275.02 314.83 347.25 294.63 361.09 245.37 288.85 265.57 275.02"/><g class="cls-29"><polygon class="cls-3" points="314.83 347.25 294.63 361.09 118.61 360.77 138.82 346.93 314.83 347.25"/></g><polygon class="cls-1" points="314.83 347.25 294.63 361.09 118.61 360.77 138.82 346.93 314.83 347.25"/><g class="cls-30"><polygon class="cls-3" points="138.82 346.93 118.61 360.77 2.11 189.86 22.31 176.02 138.82 346.93"/></g><polygon class="cls-1" points="138.82 346.93 118.61 360.77 2.11 189.86 22.31 176.02 138.82 346.93"/><g class="cls-31"><polygon class="cls-3" points="22.31 176.02 2.11 189.86 71.93 17.21 92.13 3.38 22.31 176.02"/></g><polygon class="cls-1" points="22.31 176.02 2.11 189.86 71.93 17.21 92.13 3.38 22.31 176.02"/><g class="cls-32"><polygon class="cls-3" points="92.13 3.38 278.46 1.64 258.26 15.47 71.93 17.21 92.13 3.38"/></g><polygon class="cls-1" points="92.13 3.38 278.46 1.63 258.25 15.47 71.93 17.21 92.13 3.38"/><g class="cls-33"><path class="cls-3" d="M245.75,287.91,296.29,362l-178-.3L1.08,189.86,71.29,16.31l187.34-1.75L370.18,178.48l-80.43.68L228.28,88.75l-107.23,1L80.9,189.06,148,287.41ZM2.13,189.86,118.61,360.74l176,.31-49.26-72.2-97.8-.5L79.88,189.07,120.45,88.76l108.25-1,61.47,90.41,78.39-.67L258.3,15.56,71.94,17.3,2.13,189.86"/></g><path class="cls-1" d="M245.75,287.91,296.29,362l-178-.3L1.08,189.86,71.29,16.31l187.34-1.75L370.18,178.48l-80.43.68L228.28,88.75l-107.23,1L80.9,189.06,148,287.41ZM2.13,189.86,118.61,360.74l176,.31-49.26-72.2-97.8-.5L79.88,189.07,120.45,88.76l108.25-1,61.47,90.41,78.39-.67L258.3,15.56,71.94,17.3,2.13,189.86"/><g class="cls-34"><path class="cls-3" d="M266,274.07l50.54,74.16-178.06-.33L21.34,176.06,91.59,2.48,278.84.7,390.39,164.62l-80.42.67L248.53,74.85l-107.24,1-40.18,99.39,67.06,98.36ZM22.31,176,138.82,346.93l176,.32-49.26-72.2-97.79-.51-67.69-99.31,40.59-100.3L249,74l61.47,90.41,78.39-.67L278.46,1.67,92.1,3.42,22.31,176"/></g><path class="cls-1" d="M266,274.07l50.54,74.16-178.06-.33L21.34,176.06,91.59,2.48,278.84.7,390.39,164.62l-80.42.67L248.53,74.85l-107.24,1-40.18,99.39,67.06,98.36ZM22.31,176,138.82,346.93l176,.32-49.26-72.2-97.79-.51-67.69-99.31,40.59-100.3L249,74l61.47,90.41,78.39-.67L278.46,1.67,92.1,3.42,22.31,176"/><g class="cls-35"><polygon class="cls-3" points="265.95 274.08 316.49 348.19 296.29 362.02 245.75 287.92 265.95 274.08"/></g><polygon class="cls-1" points="265.95 274.07 316.49 348.19 296.29 362.01 245.75 287.91 265.95 274.07"/><g class="cls-36"><polygon class="cls-3" points="316.49 348.19 296.29 362.02 118.23 361.69 138.43 347.86 316.49 348.19"/></g><polygon class="cls-1" points="316.49 348.19 296.29 362.01 118.23 361.69 138.43 347.86 316.49 348.19"/><g class="cls-37"><polygon class="cls-3" points="138.43 347.86 118.23 361.69 1.08 189.86 21.29 176.03 138.43 347.86"/></g><polygon class="cls-1" points="138.43 347.86 118.23 361.69 1.08 189.86 21.29 176.02 138.43 347.86"/><g class="cls-38"><polygon class="cls-3" points="21.29 176.03 1.08 189.86 71.29 16.28 91.48 2.45 21.29 176.03"/></g><polygon class="cls-1" points="21.29 176.02 1.08 189.86 71.29 16.28 91.48 2.44 21.29 176.02"/><g class="cls-39"><polygon class="cls-3" points="91.48 2.45 278.84 0.7 258.64 14.53 71.29 16.28 91.48 2.45"/></g><polygon class="cls-1" points="91.48 2.44 278.84 0.7 258.64 14.53 71.29 16.28 91.48 2.44"/><g class="cls-40"><polygon class="cls-3" points="278.84 0.7 390.39 164.59 370.19 178.42 258.64 14.53 278.84 0.7"/></g><polygon class="cls-1" points="278.84 0.7 390.39 164.59 370.19 178.41 258.64 14.53 278.84 0.7"/><g class="cls-41"><polygon class="cls-3" points="390.39 164.59 370.19 178.42 289.76 179.1 309.97 165.26 390.39 164.59"/></g><polygon class="cls-1" points="390.39 164.59 370.19 178.41 289.77 179.1 309.97 165.26 390.39 164.59"/><g class="cls-42"><polygon class="cls-3" points="309.97 165.26 289.76 179.1 228.32 88.69 248.53 74.86 309.97 165.26"/></g><polygon class="cls-1" points="309.97 165.26 289.77 179.1 228.32 88.69 248.53 74.85 309.97 165.26"/><g class="cls-43"><polygon class="cls-3" points="248.53 74.86 228.32 88.69 121.09 89.7 141.29 75.86 248.53 74.86"/></g><polygon class="cls-1" points="248.53 74.85 228.32 88.69 121.09 89.69 141.29 75.86 248.53 74.85"/><g class="cls-44"><polygon class="cls-3" points="141.29 75.86 101.11 175.23 80.9 189.06 121.09 89.7 141.29 75.86"/></g><polygon class="cls-1" points="141.29 75.86 101.11 175.22 80.9 189.06 121.09 89.69 141.29 75.86"/><g class="cls-45"><polygon class="cls-3" points="101.11 175.23 168.16 273.58 147.96 287.41 80.9 189.06 101.11 175.23"/></g><polygon class="cls-1" points="101.11 175.22 168.16 273.57 147.96 287.41 80.9 189.06 101.11 175.22"/><g class="cls-46"><polygon class="cls-3" points="168.16 273.58 265.95 274.08 245.75 287.92 147.96 287.41 168.16 273.58"/></g><polygon class="cls-1" points="168.16 273.57 265.95 274.07 245.75 287.91 147.96 287.41 168.16 273.57"/><g class="cls-47"><polygon class="cls-3" points="22.31 176.02 138.82 346.93 118.61 360.77 2.11 189.86 22.31 176.02"/></g><polygon class="cls-1" points="22.31 176.02 138.82 346.93 118.61 360.77 2.11 189.86 22.31 176.02"/><g class="cls-48"><polygon class="cls-3" points="138.82 346.93 314.83 347.25 294.63 361.09 118.61 360.77 138.82 346.93"/></g><polygon class="cls-1" points="138.82 346.93 314.83 347.25 294.63 361.09 118.61 360.77 138.82 346.93"/><g class="cls-49"><polygon class="cls-3" points="314.83 347.25 294.63 361.09 245.37 288.86 265.57 275.02 314.83 347.25"/></g><polygon class="cls-1" points="314.83 347.25 294.63 361.09 245.37 288.85 265.57 275.01 314.83 347.25"/><g class="cls-50"><polygon class="cls-3" points="265.57 275.02 245.37 288.86 147.57 288.35 167.78 274.52 265.57 275.02"/></g><polygon class="cls-1" points="265.57 275.01 245.37 288.85 147.57 288.35 167.78 274.51 265.57 275.01"/><g class="cls-51"><polygon class="cls-3" points="167.78 274.52 147.57 288.35 79.88 189.07 100.09 175.24 167.78 274.52"/></g><polygon class="cls-1" points="167.78 274.51 147.57 288.35 79.88 189.07 100.09 175.23 167.78 274.51"/><g class="cls-52"><polygon class="cls-3" points="100.09 175.24 79.88 189.07 120.45 88.77 140.65 74.94 100.09 175.24"/></g><polygon class="cls-1" points="100.09 175.23 79.88 189.07 120.45 88.76 140.65 74.93 100.09 175.23"/><g class="cls-53"><polygon class="cls-3" points="140.65 74.94 248.9 73.91 228.7 87.75 120.45 88.77 140.65 74.94"/></g><polygon class="cls-1" points="140.65 74.93 248.91 73.91 228.7 87.75 120.45 88.76 140.65 74.93"/><g class="cls-54"><polygon class="cls-3" points="248.9 73.91 310.36 164.33 290.15 178.16 228.7 87.75 248.9 73.91"/></g><polygon class="cls-1" points="248.91 73.91 310.36 164.32 290.15 178.16 228.7 87.75 248.91 73.91"/><g class="cls-55"><polygon class="cls-3" points="310.36 164.33 388.74 163.66 368.54 177.5 290.15 178.16 310.36 164.33"/></g><polygon class="cls-1" points="310.36 164.32 388.75 163.65 368.54 177.49 290.15 178.16 310.36 164.32"/><g class="cls-56"><polygon class="cls-3" points="388.74 163.66 368.54 177.5 258.26 15.47 278.46 1.64 388.74 163.66"/></g><polygon class="cls-1" points="388.75 163.65 368.54 177.49 258.25 15.47 278.46 1.63 388.75 163.65"/><g class="cls-57"><polygon class="cls-3" points="278.46 1.64 258.26 15.47 71.93 17.21 92.13 3.38 278.46 1.64"/></g><polygon class="cls-1" points="278.46 1.63 258.25 15.47 71.93 17.21 92.13 3.38 278.46 1.63"/><g class="cls-58"><polygon class="cls-3" points="92.13 3.38 22.31 176.02 2.11 189.86 71.93 17.21 92.13 3.38"/></g><polygon class="cls-1" points="92.13 3.38 22.31 176.02 2.11 189.86 71.93 17.21 92.13 3.38"/><g class="cls-59"><polygon class="cls-3" points="371.24 195.53 308.04 351.79 258.76 279.62 292.53 196.32 371.24 195.53"/></g><polygon class="cls-1" points="371.24 195.52 308.04 351.79 258.76 279.62 292.53 196.32 371.24 195.52"/><g class="cls-60"><polygon class="cls-3" points="391.44 181.69 328.23 337.95 278.96 265.79 312.73 182.49 391.44 181.69"/></g><polygon class="cls-1" points="391.44 181.69 328.23 337.95 278.96 265.78 312.73 182.48 391.44 181.69"/><g class="cls-61"><polygon class="cls-3" points="391.44 181.69 328.23 337.95 308.04 351.79 371.24 195.53 391.44 181.69"/></g><polygon class="cls-1" points="391.44 181.69 328.23 337.95 308.04 351.79 371.24 195.52 391.44 181.69"/><g class="cls-62"><polygon class="cls-3" points="328.23 337.95 308.04 351.79 258.76 279.62 278.96 265.79 328.23 337.95"/></g><polygon class="cls-1" points="328.23 337.95 308.04 351.79 258.76 279.62 278.96 265.78 328.23 337.95"/><g class="cls-63"><polygon class="cls-3" points="278.96 265.79 258.76 279.62 292.53 196.32 312.73 182.49 278.96 265.79"/></g><polygon class="cls-1" points="278.96 265.78 258.76 279.62 292.53 196.32 312.73 182.48 278.96 265.78"/><g class="cls-64"><polygon class="cls-3" points="312.73 182.49 391.44 181.69 371.24 195.53 292.53 196.32 312.73 182.49"/></g><polygon class="cls-1" points="312.73 182.48 391.44 181.69 371.24 195.52 292.53 196.32 312.73 182.48"/><g class="cls-65"><path class="cls-3" d="M291.92,195.38l80.74-.81-64.34,159-50.55-74Zm16.15,156.41,63.17-156.27-78.71.8-33.79,83.29L308,351.82"/></g><path class="cls-1" d="M291.92,195.38l80.74-.81-64.34,159-50.55-74Zm16.15,156.41,63.17-156.27-78.71.8-33.79,83.29L308,351.82"/><g class="cls-66"><path class="cls-3" d="M312.09,181.56l80.75-.82-64.35,159-50.54-74ZM328.23,338l63.21-156.26-78.71.79L279,265.78,328.23,338"/></g><path class="cls-1" d="M312.09,181.56l80.75-.82-64.35,159-50.54-74ZM328.23,338l63.21-156.26-78.71.79L279,265.78,328.23,338"/><g class="cls-67"><polygon class="cls-3" points="312.09 181.56 392.84 180.75 372.63 194.58 291.89 195.39 312.09 181.56"/></g><polygon class="cls-1" points="312.09 181.54 392.84 180.75 372.63 194.57 291.89 195.38 312.09 181.54"/><g class="cls-68"><polygon class="cls-3" points="392.84 180.75 328.49 339.83 308.29 353.66 372.63 194.58 392.84 180.75"/></g><polygon class="cls-1" points="392.84 180.75 328.49 339.82 308.29 353.65 372.63 194.57 392.84 180.75"/><g class="cls-69"><polygon class="cls-3" points="328.49 339.83 308.29 353.66 257.74 279.63 277.94 265.8 328.49 339.83"/></g><polygon class="cls-1" points="328.49 339.82 308.29 353.65 257.74 279.63 277.94 265.8 328.49 339.82"/><g class="cls-70"><polygon class="cls-3" points="277.94 265.8 257.74 279.63 291.89 195.39 312.09 181.56 277.94 265.8"/></g><polygon class="cls-1" points="277.94 265.8 257.74 279.63 291.89 195.38 312.09 181.54 277.94 265.8"/><g class="cls-71"><polygon class="cls-3" points="328.23 337.95 308.04 351.79 371.24 195.53 391.44 181.69 328.23 337.95"/></g><polygon class="cls-1" points="328.23 337.95 308.04 351.79 371.24 195.52 391.44 181.69 328.23 337.95"/><g class="cls-72"><polygon class="cls-3" points="391.44 181.69 371.24 195.53 292.53 196.32 312.73 182.49 391.44 181.69"/></g><polygon class="cls-1" points="391.44 181.69 371.24 195.52 292.53 196.32 312.73 182.48 391.44 181.69"/><g class="cls-73"><polygon class="cls-3" points="312.73 182.49 278.96 265.79 258.76 279.62 292.53 196.32 312.73 182.49"/></g><polygon class="cls-1" points="312.73 182.48 278.96 265.78 258.76 279.62 292.53 196.32 312.73 182.48"/><g class="cls-74"><polygon class="cls-3" points="278.96 265.79 328.23 337.95 308.04 351.79 258.76 279.62 278.96 265.79"/></g><polygon class="cls-1" points="278.96 265.78 328.23 337.95 308.04 351.79 258.76 279.62 278.96 265.78"/></g></g></g></g></g></svg>